<svg width="124" height="117" viewBox="0 0 124 117" fill="none" xmlns="http://www.w3.org/2000/svg">
    <circle cx="7.51376" cy="7.51376" r="5.36697" stroke="#40DBD2" stroke-width="4.29358"/>
    <circle cx="7.51376" cy="107.339" r="5.36697" stroke="#40DBD2" stroke-width="4.29358"/>
    <circle cx="7.51376" cy="74.0643" r="5.36697" stroke="#40DBD2" stroke-width="4.29358"/>
    <circle cx="7.51376" cy="38.6422" r="5.36697" stroke="#40DBD2" stroke-width="4.29358"/>
    <circle cx="114.853" cy="7.51376" r="5.36697" stroke="#40DBD2" stroke-width="4.29358"/>
    <path d="M121.294 107.339C121.294 110.166 118.792 112.706 115.39 112.706C111.988 112.706 109.486 110.166 109.486 107.339C109.486 104.512 111.988 101.972 115.39 101.972C118.792 101.972 121.294 104.512 121.294 107.339Z"
          stroke="#40DBD2" stroke-width="4.29358"/>
    <circle cx="114.853" cy="74.0643" r="5.36697" stroke="#40DBD2" stroke-width="4.29358"/>
    <circle cx="114.853" cy="38.6422" r="5.36697" stroke="#40DBD2" stroke-width="4.29358"/>
    <circle cx="76.211" cy="7.51376" r="5.36697" stroke="#40DBD2" stroke-width="4.29358"/>
    <circle cx="76.211" cy="109.486" r="5.36697" stroke="#40DBD2" stroke-width="4.29358"/>
    <circle cx="76.211" cy="74.0643" r="5.36697" stroke="#40DBD2" stroke-width="4.29358"/>
    <circle cx="76.211" cy="38.6422" r="5.36697" stroke="#40DBD2" stroke-width="4.29358"/>
    <circle cx="41.8624" cy="7.51376" r="5.36697" stroke="#40DBD2" stroke-width="4.29358"/>
    <circle cx="41.8624" cy="109.486" r="5.36697" stroke="#40DBD2" stroke-width="4.29358"/>
    <circle cx="41.8624" cy="74.0643" r="5.36697" stroke="#40DBD2" stroke-width="4.29358"/>
    <circle cx="41.8624" cy="38.6422" r="5.36697" stroke="#40DBD2" stroke-width="4.29358"/>
</svg>
