<svg width="139" height="158" viewBox="0 0 139 158" fill="none" xmlns="http://www.w3.org/2000/svg">
    <circle cx="127.452" cy="10.1043" r="7.21739" stroke="#40DBD2" stroke-width="5.77391"/>
    <path d="M136.113 144.348C136.113 148.149 132.749 151.565 128.174 151.565C123.598 151.565 120.235 148.149 120.235 144.348C120.235 140.546 123.598 137.13 128.174 137.13C132.749 137.13 136.113 140.546 136.113 144.348Z"
          stroke="#40DBD2" stroke-width="5.77391"/>
    <circle cx="127.452" cy="99.6002" r="7.21739" stroke="#40DBD2" stroke-width="5.77391"/>
    <circle cx="127.452" cy="51.9652" r="7.21739" stroke="#40DBD2" stroke-width="5.77391"/>
    <circle cx="75.4869" cy="10.1043" r="7.21739" stroke="#40DBD2" stroke-width="5.77391"/>
    <circle cx="75.4869" cy="147.235" r="7.21739" stroke="#40DBD2" stroke-width="5.77391"/>
    <circle cx="75.4869" cy="99.6002" r="7.21739" stroke="#40DBD2" stroke-width="5.77391"/>
    <circle cx="75.4869" cy="51.9652" r="7.21739" stroke="#40DBD2" stroke-width="5.77391"/>
    <circle cx="29.2958" cy="10.1043" r="7.21739" stroke="#40DBD2" stroke-width="5.77391"/>
    <circle cx="29.2958" cy="147.235" r="7.21739" stroke="#40DBD2" stroke-width="5.77391"/>
    <circle cx="29.2958" cy="99.6002" r="7.21739" stroke="#40DBD2" stroke-width="5.77391"/>
    <circle cx="29.2958" cy="51.9652" r="7.21739" stroke="#40DBD2" stroke-width="5.77391"/>
</svg>
