<svg width="112" height="103" viewBox="0 0 112 103" fill="none" xmlns="http://www.w3.org/2000/svg">
    <rect x="24.7753" y="87.1265" width="68.5449" height="5.7809" rx="2.89045" fill="#40DBD2"/>
    <rect x="4.12924" y="72.2612" width="45.4213" height="5.7809" rx="2.89045" fill="#2158E4" fill-opacity="0.7"/>
    <path d="M39.1914 29.7104C46.9042 16.4546 66.0522 16.4546 73.765 29.7104L75.4759 32.6509C83.2338 45.9841 73.6151 62.7091 58.1891 62.7091H54.7672C39.3413 62.7091 29.7226 45.9842 37.4805 32.6509L39.1914 29.7104Z"
          fill="url(#paint0_radial)"/>
    <path d="M53.2267 15.5738L53.7806 13.8814C55.3234 9.16719 61.7214 8.50896 64.1918 12.8103L92.8814 62.7639L64.4916 23.4436C63.2888 21.7777 61.1596 21.0614 59.1945 21.6615C55.474 22.7977 52.0167 19.271 53.2267 15.5738Z"
          fill="#0B0000"/>
    <path d="M29.7042 59.798L27.938 60.0248C23.0182 60.6568 19.6753 55.162 22.4982 51.0834L55.2828 3.71644L31.9715 46.2447C30.9839 48.0465 31.2517 50.2769 32.6379 51.7937C35.2622 54.6653 33.5626 59.3023 29.7042 59.798Z"
          fill="#0B0000"/>
    <path d="M83.7367 53.0459L81.8691 50.9476C80.354 49.2453 77.6345 49.4521 76.3942 51.3638C73.5184 56.1292 68.4955 59.1886 62.9419 59.5576L20.7768 62.359L79.5582 62.359C84.3867 62.359 86.947 56.6526 83.7367 53.0459Z"
          fill="#140202"/>
    <g filter="url(#filter0_d)">
        <path d="M20.9268 72.4538V69.1588L22.353 68.3351H25.2177L26.6439 69.1588V70.4252H25.4144V69.4416H22.1563V72.0481H25.2177L26.6439 72.8719V76.2407L25.2177 77.0644H22.23L20.8038 76.2407V74.9743H22.0333V75.9579H25.4144V73.2776H22.353L20.9268 72.4538ZM40.605 68.3966L38.3919 77.0029H36.9289L35.1092 70.1055H35.0846L33.265 77.0029H31.8019L29.5889 68.3966H30.7815L32.5273 75.4292H32.5519L34.4084 68.3966H35.7854L37.6297 75.4292H37.6543L39.4124 68.3966H40.605ZM43.5564 77.0029V68.3966H44.7859V77.0029H43.5564ZM49.7072 73.1301V77.0029H48.4777V68.3966H53.5063V69.5031H49.7072V72.0235H52.7686V73.1301H49.7072ZM59.3992 69.5031V77.0029H58.1697V69.5031H55.723V68.3966H61.8458V69.5031H59.3992ZM24.6644 86.3966L27.7381 95.0029H26.5332L25.8078 92.962H21.9964L21.271 95.0029H20.0661L23.1399 86.3966H24.6644ZM23.8898 87.6137L22.3899 91.8555H25.4144L23.9144 87.6137H23.8898ZM37.0215 94.1792L35.5953 95.0029H30.5667V86.3966H35.5953L37.0215 87.2203V94.1792ZM31.7962 87.5031V93.8964H35.792V87.5031H31.7962ZM47.5222 86.3966L44.4485 95.0029H42.9239L39.8502 86.3966H41.092L43.6739 93.7366H43.6985L46.2804 86.3966H47.5222ZM51.5803 91.1301V93.8964H55.2564V95.0029H50.3508V86.3966H55.2564V87.5031H51.5803V90.0235H54.5187V91.1301H51.5803ZM59.6833 88.499V95.0029H58.4538V86.3966H59.5726L64.0234 92.9005H64.048V86.3966H65.2774V95.0029H64.1586L59.7079 88.499H59.6833ZM71.9087 87.5031V95.0029H70.6792V87.5031H68.2325V86.3966H74.3553V87.5031H71.9087ZM82.5267 86.3966H83.7562V94.2407L82.33 95.0644H78.7276L77.3014 94.2407V86.3966H78.5309V93.8349H82.5267V86.3966ZM90.5316 91.5727H88.675V95.0029H87.4456V86.3966H91.8594L93.2856 87.2203V90.7489L91.8594 91.5727L93.8389 95.0029H92.4741L90.5316 91.5727ZM88.675 87.5031V90.4661H92.0561V87.5031H88.675ZM98.2069 91.1301V93.8964H101.883V95.0029H96.9774V86.3966H101.883V87.5031H98.2069V90.0235H101.145V91.1301H98.2069Z"
              fill="#160000"/>
    </g>
    <defs>
        <filter id="filter0_d" x="16.2831" y="68.3352" width="89.3829" height="34.2954" filterUnits="userSpaceOnUse"
                color-interpolation-filters="sRGB">
            <feFlood flood-opacity="0" result="BackgroundImageFix"/>
            <feColorMatrix in="SourceAlpha" type="matrix" values="0 0 0 0 0 0 0 0 0 0 0 0 0 0 0 0 0 0 127 0"/>
            <feOffset dy="3.78302"/>
            <feGaussianBlur stdDeviation="1.89151"/>
            <feColorMatrix type="matrix" values="0 0 0 0 0 0 0 0 0 0 0 0 0 0 0 0 0 0 0.25 0"/>
            <feBlend mode="normal" in2="BackgroundImageFix" result="effect1_dropShadow"/>
            <feBlend mode="normal" in="SourceGraphic" in2="effect1_dropShadow" result="shape"/>
        </filter>
        <radialGradient id="paint0_radial" cx="0" cy="0" r="1" gradientUnits="userSpaceOnUse"
                        gradientTransform="translate(56.4782 41.8061) rotate(90) scale(41.8061 42.1314)">
            <stop offset="0.770833" stop-color="#40DBD2"/>
            <stop offset="1" stop-color="#2158E4"/>
        </radialGradient>
    </defs>
</svg>
