<svg width="199" height="189" viewBox="0 0 199 189" fill="none" xmlns="http://www.w3.org/2000/svg">
    <circle cx="12.0857" cy="12.0857" r="10.0857" stroke="#FFF9F9" stroke-width="4"/>
    <circle cx="12.0857" cy="172.653" r="10.0857" stroke="#FFF9F9" stroke-width="4"/>
    <circle cx="12.0857" cy="119.13" r="10.0857" stroke="#FFF9F9" stroke-width="4"/>
    <circle cx="12.0857" cy="62.155" r="10.0857" stroke="#FFF9F9" stroke-width="4"/>
    <!-- <circle cx="184.738" cy="12.0857" r="10.0857" stroke="#FFF9F9" stroke-width="4"/> -->
    <!-- <path d="M196.55 172.653C196.55 178.095 191.781 182.738 185.602 182.738C179.422 182.738 174.653 178.095 174.653 172.653C174.653 167.21 179.422 162.567 185.602 162.567C191.781 162.567 196.55 167.21 196.55 172.653Z" stroke="#FFF9F9" stroke-width="4"/> -->
    <!-- <circle cx="184.738" cy="119.13" r="10.0857" stroke="#FFF9F9" stroke-width="4"/>
    <circle cx="184.738" cy="62.155" r="10.0857" stroke="#FFF9F9" stroke-width="4"/> -->
    <circle cx="122.583" cy="12.0857" r="10.0857" stroke="#FFF9F9" stroke-width="4"/>
    <circle cx="122.583" cy="176.106" r="10.0857" stroke="#FFF9F9" stroke-width="4"/>
    <circle cx="122.583" cy="119.13" r="10.0857" stroke="#FFF9F9" stroke-width="4"/>
    <circle cx="122.583" cy="62.155" r="10.0857" stroke="#FFF9F9" stroke-width="4"/>
    <circle cx="67.3345" cy="12.0857" r="10.0857" stroke="#FFF9F9" stroke-width="4"/>
    <circle cx="67.3345" cy="176.106" r="10.0857" stroke="#FFF9F9" stroke-width="4"/>
    <circle cx="67.3345" cy="119.13" r="10.0857" stroke="#FFF9F9" stroke-width="4"/>
    <circle cx="67.3345" cy="62.155" r="10.0857" stroke="#FFF9F9" stroke-width="4"/>
</svg>
